<?xml version="1.0" standalone="no"?>
<!DOCTYPE svg PUBLIC "-//W3C//DTD SVG 20010904//EN"
 "http://www.w3.org/TR/2001/REC-SVG-20010904/DTD/svg10.dtd">
<svg version="1.0" xmlns="http://www.w3.org/2000/svg"
 width="747.000000pt" height="747.000000pt" viewBox="0 0 747.000000 747.000000"
 preserveAspectRatio="xMidYMid meet">
<metadata>
Created by potrace 1.14, written by Peter Selinger 2001-2017
</metadata>
<g transform="translate(0.000000,747.000000) scale(0.100000,-0.100000)"
fill="#000000" stroke="none">
<path d="M1980 6702 l0 -199 -52 -12 c-71 -15 -191 -69 -260 -115 -284 -188
-422 -577 -316 -890 48 -142 127 -246 261 -344 57 -42 231 -129 315 -158 l52
-18 0 -370 c1 -773 2 -759 -12 -767 -6 -4 -20 -3 -29 2 -10 5 -29 9 -43 9 -14
0 -28 4 -31 10 -3 6 -13 10 -22 10 -39 0 -211 100 -274 159 -15 14 -44 41 -64
59 l-36 33 -100 -98 c-54 -53 -99 -101 -99 -106 0 -19 138 -142 236 -210 109
-75 272 -139 394 -153 30 -3 60 -7 65 -8 6 0 12 -76 15 -191 l5 -190 40 0 c22
-1 46 -4 53 -8 6 -5 12 -4 12 0 0 10 113 9 128 -1 21 -13 25 21 26 205 1 103
3 190 6 192 3 3 21 8 40 12 19 3 42 8 50 9 58 12 204 79 280 129 110 74 170
132 241 234 37 54 85 157 106 228 16 57 37 217 35 270 -1 23 -13 93 -22 135
-6 25 -12 55 -14 66 -3 12 -14 40 -25 63 -12 22 -18 41 -14 41 5 0 3 4 -2 8
-6 4 -23 27 -37 52 -86 148 -236 250 -509 344 l-135 47 0 521 c1 426 3 522 14
526 23 7 153 -28 228 -63 70 -32 165 -96 193 -128 7 -10 19 -17 25 -17 7 0 57
44 113 98 114 111 114 91 -2 182 -80 63 -91 70 -198 122 -98 49 -260 93 -358
97 -13 1 -15 25 -14 179 0 97 -1 183 -3 190 -3 9 -39 12 -133 12 l-129 0 0
-198z m1 -963 c-1 -254 -3 -465 -6 -468 -8 -8 -135 57 -180 92 -73 58 -145
146 -145 180 0 7 -4 17 -9 23 -29 30 -36 219 -11 294 43 128 118 227 220 288
44 27 122 61 128 56 2 -1 3 -210 3 -465z m434 -929 c147 -67 250 -169 280
-276 5 -16 10 -36 12 -44 6 -19 5 -170 0 -190 -45 -179 -131 -302 -264 -383
-50 -31 -166 -77 -191 -77 -4 0 -8 234 -8 519 l0 519 60 -22 c34 -13 84 -33
111 -46z"/>
<path d="M5742 6587 c-12 -17 -37 -48 -55 -69 -18 -20 -51 -58 -73 -84 -21
-26 -48 -57 -59 -70 -11 -12 -38 -43 -60 -70 -22 -26 -69 -82 -105 -124 -36
-42 -90 -106 -120 -143 -30 -37 -58 -67 -62 -67 -5 0 -8 -4 -8 -10 0 -5 -8
-18 -17 -28 -10 -10 -38 -42 -63 -71 -25 -30 -52 -62 -60 -71 -8 -9 -35 -41
-60 -71 -24 -30 -52 -63 -62 -74 -21 -23 -45 -53 -96 -114 -21 -24 -41 -49
-47 -55 -10 -11 -150 -177 -190 -225 -11 -13 -30 -34 -42 -47 -13 -13 -23 -26
-23 -29 0 -4 -11 -18 -25 -33 -38 -41 -76 -85 -115 -132 -19 -24 -45 -54 -57
-67 -11 -13 -35 -41 -53 -63 -17 -21 -41 -49 -52 -62 -11 -13 -36 -43 -56 -67
-21 -24 -42 -49 -47 -55 -6 -6 -33 -38 -60 -71 -51 -61 -92 -109 -110 -129 -5
-6 -32 -38 -60 -71 -27 -33 -59 -71 -70 -84 -11 -13 -25 -29 -30 -35 -6 -6
-33 -38 -60 -71 -28 -33 -58 -67 -67 -76 -10 -9 -18 -19 -18 -23 0 -3 -8 -14
-17 -24 -10 -10 -38 -42 -63 -72 -91 -109 -123 -145 -131 -148 -5 -2 -9 -8 -9
-13 0 -5 -8 -17 -17 -27 -20 -21 -47 -52 -118 -137 -27 -33 -54 -65 -60 -71
-5 -6 -28 -32 -50 -59 -22 -26 -45 -53 -50 -59 -11 -11 -154 -182 -190 -225
-11 -14 -27 -32 -35 -40 -8 -9 -33 -38 -55 -66 -22 -27 -47 -56 -55 -65 -8 -9
-33 -38 -55 -64 -22 -27 -52 -63 -66 -80 -15 -17 -56 -65 -90 -106 -35 -41
-68 -80 -74 -86 -5 -6 -28 -33 -50 -60 -22 -26 -49 -58 -60 -70 -11 -12 -27
-31 -35 -41 -22 -27 -112 -134 -137 -163 -12 -14 -31 -36 -43 -50 -12 -14 -38
-45 -58 -69 -32 -39 -132 -156 -196 -231 -11 -14 -43 -52 -71 -85 -27 -33 -52
-62 -55 -65 -3 -3 -30 -34 -60 -70 -30 -36 -59 -70 -65 -76 -5 -6 -25 -29 -43
-52 -19 -23 -43 -51 -54 -64 -11 -13 -36 -43 -56 -67 -21 -24 -47 -55 -59 -67
-13 -13 -23 -26 -23 -29 0 -3 -10 -16 -22 -29 -13 -12 -41 -44 -63 -71 -49
-60 -98 -118 -105 -125 -3 -3 -41 -47 -84 -98 l-79 -94 24 -21 c13 -12 49 -43
80 -69 l56 -47 34 40 c19 23 42 50 53 62 10 12 35 42 55 67 20 25 48 56 64 70
15 13 27 28 27 33 0 4 12 20 26 35 14 15 48 55 76 90 28 34 55 62 60 62 4 0 8
6 8 14 0 8 11 23 25 34 14 11 25 25 25 31 0 6 3 11 8 11 4 0 29 28 57 61 27
34 54 67 60 73 5 6 30 36 55 66 24 30 55 65 67 77 13 12 23 27 23 32 0 6 6 14
14 18 8 4 34 33 58 63 23 30 50 62 58 70 8 9 33 37 55 64 22 27 48 58 58 70
11 11 33 38 50 60 18 21 49 56 69 77 20 22 35 39 32 39 -2 0 4 8 13 19 23 23
61 68 131 154 31 37 60 67 64 67 4 0 8 5 8 10 0 6 8 18 18 28 9 10 33 38 52
62 37 46 103 122 132 152 10 10 16 18 13 18 -4 0 48 60 98 112 9 10 17 20 17
23 0 5 22 32 65 79 11 12 36 42 55 65 19 23 45 54 58 67 12 14 30 37 38 50 9
13 20 21 25 18 5 -3 9 0 9 7 0 12 67 98 107 136 13 12 23 27 23 33 0 5 3 10 8
10 4 0 30 28 57 62 28 34 57 70 65 78 8 9 35 40 60 70 75 89 104 123 127 147
12 13 20 23 17 23 -2 0 9 13 26 30 16 16 30 34 30 39 0 5 4 11 9 13 4 2 36 37
70 78 34 41 72 86 85 100 12 14 58 68 102 120 43 52 85 103 94 113 8 10 29 34
45 52 17 19 35 40 40 47 6 8 26 32 45 54 19 22 51 59 70 83 19 23 50 58 68 77
17 19 32 37 32 39 0 3 8 13 18 23 9 10 33 38 52 62 19 24 49 60 67 79 41 46
59 68 108 127 22 26 71 84 108 129 38 44 85 100 105 124 21 24 47 54 60 67 12
13 22 26 22 29 0 3 8 13 18 23 9 11 35 40 57 66 22 26 52 60 68 77 15 16 27
34 27 39 0 6 3 10 8 10 4 0 27 25 52 56 25 31 60 71 77 90 18 19 30 34 28 34
-3 0 3 8 13 18 9 10 40 45 67 77 28 32 60 69 72 82 12 13 20 23 17 23 -2 0 9
13 26 30 16 16 30 31 30 34 0 5 53 67 88 103 12 13 22 28 22 33 0 4 3 10 8 12
7 3 52 53 112 126 19 24 46 55 60 71 14 15 37 43 52 63 25 31 48 58 118 135
l20 22 -24 23 c-53 52 -126 108 -140 108 -6 0 -21 -15 -34 -33z"/>
<path d="M5218 4045 c-1 -1 -23 -5 -48 -9 -99 -13 -122 -17 -184 -31 -130 -30
-318 -107 -446 -181 -42 -25 -129 -83 -140 -94 -3 -3 -27 -23 -55 -44 -49 -39
-181 -168 -220 -217 -48 -57 -105 -136 -105 -144 0 -5 -9 -18 -19 -29 -43 -48
-178 -337 -165 -357 3 -5 1 -9 -4 -9 -5 0 -15 -26 -22 -57 -8 -32 -15 -62 -17
-68 -13 -44 -28 -134 -38 -221 -8 -72 -4 -349 5 -349 1 0 4 -25 7 -55 2 -30 9
-57 14 -58 5 -2 7 -7 5 -11 -3 -4 0 -25 5 -47 5 -21 12 -50 15 -64 10 -47 52
-164 85 -236 11 -22 19 -43 19 -46 0 -18 137 -233 195 -306 37 -47 211 -218
265 -260 72 -55 207 -141 258 -163 17 -8 32 -17 32 -21 0 -5 8 -8 18 -8 10 0
22 -4 27 -9 18 -17 285 -106 285 -95 0 3 8 1 18 -4 9 -5 37 -12 62 -15 25 -4
56 -9 70 -12 14 -3 63 -7 110 -10 47 -2 87 -5 90 -6 9 -2 215 9 215 11 0 1 12
3 26 4 14 2 31 6 37 10 7 4 12 2 12 -3 0 -8 6 -8 18 -1 9 5 44 15 77 22 33 6
62 12 65 13 30 6 189 65 240 89 36 16 68 29 73 28 4 -1 7 2 7 8 0 5 6 10 14
10 7 0 19 7 26 15 7 9 15 13 17 11 3 -3 27 11 54 30 27 19 51 34 55 34 3 0 12
6 19 12 8 7 20 18 27 23 105 81 206 176 288 271 33 37 131 180 152 219 72 137
87 166 88 170 0 3 7 20 15 38 7 18 17 45 20 60 4 15 11 30 16 32 4 3 6 12 2
20 -3 8 -1 15 5 15 6 0 9 8 8 17 -2 10 3 32 10 48 7 17 15 50 19 75 4 24 11
53 17 63 7 15 7 18 -2 12 -9 -5 -9 -3 -2 11 5 11 8 29 7 42 -1 12 1 22 4 22 3
0 6 30 6 66 0 36 4 68 8 71 4 3 3 11 -4 19 -9 11 -8 14 2 14 10 0 10 3 1 12
-7 7 -8 17 -1 30 7 12 6 18 -1 18 -7 0 -8 6 -1 19 6 10 8 21 4 24 -3 3 -7 28
-9 54 -5 61 -18 158 -27 193 -2 8 -8 33 -12 55 -12 55 -12 54 -15 60 -1 3 -3
8 -5 13 -1 4 -4 14 -7 22 -3 8 -16 44 -29 80 -29 85 -119 270 -130 270 -5 0
-9 4 -9 10 0 8 -38 69 -85 137 -51 74 -292 313 -316 313 -4 0 -19 11 -33 25
-14 14 -27 25 -30 25 -3 0 -30 16 -60 35 -30 19 -59 35 -65 35 -5 0 -11 4 -13
8 -9 22 -301 139 -388 156 -14 3 -36 8 -50 11 -24 5 -43 9 -120 21 -38 6 -356
14 -362 9z m368 -237 c14 -44 38 -59 95 -58 84 2 105 8 106 31 3 31 7 32 50
19 100 -32 269 -122 401 -215 51 -36 201 -181 242 -235 80 -104 111 -148 127
-182 10 -21 22 -38 26 -38 5 0 5 -4 2 -10 -3 -5 -3 -10 2 -10 4 0 14 -15 22
-32 7 -18 22 -53 33 -78 11 -25 24 -54 28 -65 9 -21 30 -88 34 -108 2 -7 6
-19 9 -27 17 -46 40 -207 41 -292 1 -32 4 -58 8 -58 4 0 5 -6 3 -12 -2 -7 -7
-49 -10 -93 -9 -141 -12 -168 -34 -244 -7 -23 -10 -45 -8 -48 3 -2 -1 -16 -8
-30 -8 -15 -12 -30 -9 -35 3 -4 0 -8 -5 -8 -6 0 -11 -6 -11 -14 0 -8 -5 -27
-11 -43 -6 -15 -10 -29 -10 -30 0 -1 -16 -34 -35 -73 -18 -38 -33 -73 -33 -76
0 -4 -3 -10 -8 -13 -4 -3 -14 -16 -20 -28 -7 -13 -19 -33 -25 -45 -7 -13 -15
-25 -18 -28 -3 -3 -17 -21 -30 -40 -76 -110 -237 -275 -317 -323 -18 -10 -33
-22 -33 -26 0 -4 -20 -18 -45 -30 -25 -12 -45 -27 -45 -33 0 -6 -3 -8 -6 -5
-4 4 -19 -2 -34 -13 -15 -11 -30 -17 -34 -13 -3 3 -6 1 -6 -6 0 -7 -4 -9 -10
-6 -5 3 -10 2 -10 -3 0 -5 -8 -12 -17 -15 -10 -2 -27 -8 -38 -12 -12 -4 -3 8
20 29 22 20 43 36 48 36 4 0 5 5 2 10 -3 5 -1 10 5 10 24 0 212 186 231 228 7
17 18 32 22 32 5 0 5 5 2 10 -3 6 -3 16 2 23 9 15 14 35 16 64 1 21 47 53 77
53 6 0 18 7 27 15 8 8 19 13 24 10 5 -4 9 -2 9 2 0 5 14 17 31 27 16 10 44 33
61 52 34 37 71 94 62 94 -4 0 -2 6 3 13 5 6 9 32 8 57 -3 68 -4 72 -15 65 -5
-3 -10 0 -10 8 0 15 -44 57 -60 57 -6 0 -10 3 -10 8 0 14 -144 72 -188 74 -7
1 -15 13 -19 27 -3 14 -14 34 -24 43 -10 10 -21 23 -26 30 -21 34 -126 96
-205 122 -157 52 -280 50 -380 -5 -12 -7 -25 -14 -28 -14 -3 -1 -17 -7 -32
-13 -23 -9 -34 -8 -66 9 l-38 21 -1 71 c-1 86 -17 105 -82 100 -23 -2 -41 0
-42 5 0 4 -2 37 -3 75 -2 37 -7 72 -12 77 -21 21 -94 12 -120 -14 -25 -25 -77
-20 -108 10 -14 15 -26 31 -26 36 0 5 -7 16 -15 24 -21 21 -23 87 -4 110 5 6
6 14 2 17 -3 4 2 9 11 13 9 3 14 9 11 14 -2 4 8 13 23 21 15 8 30 18 34 24 4
5 8 7 8 3 0 -4 12 -3 28 3 38 15 189 14 207 -1 9 -7 14 -18 14 -24 -1 -6 1
-23 5 -37 4 -14 9 -32 10 -40 10 -50 44 -74 82 -57 19 9 40 57 35 82 -1 4 3
14 9 20 5 7 7 15 4 19 -13 13 28 114 61 152 60 68 74 85 68 85 -16 0 73 60 91
61 11 1 48 3 81 4 33 1 65 3 71 4 14 1 35 47 26 56 -4 4 -7 10 -8 13 0 4 -4
15 -7 25 -15 38 -15 46 -3 56 7 6 28 13 46 15 30 3 34 0 52 -40 17 -39 22 -44
53 -44 34 0 38 5 51 62 14 63 11 96 -11 124 -13 16 -27 29 -32 29 -4 0 -19 8
-33 17 -95 60 -142 88 -150 88 -6 0 -10 4 -10 8 0 5 -16 14 -35 22 -19 8 -35
17 -35 22 0 4 -7 8 -15 8 -8 0 -15 3 -15 8 0 15 -67 36 -119 37 -42 1 -59 -3
-81 -21 -15 -13 -27 -29 -28 -36 -1 -7 -3 -30 -4 -51 -2 -23 -10 -44 -21 -52
-24 -17 -67 -10 -89 15 -13 17 -29 20 -91 20 -54 0 -78 4 -87 15 -7 8 -9 15
-4 15 4 0 3 5 -3 11 -6 6 -7 25 -3 50 4 21 4 39 -1 39 -10 0 0 31 15 45 9 9
71 38 86 41 3 0 23 9 45 19 22 10 51 22 65 28 14 5 32 13 40 18 27 14 48 9 56
-13z m-1231 -442 l31 -31 0 -156 1 -156 34 -44 c19 -24 41 -51 49 -59 8 -8 20
-23 25 -32 21 -35 180 -237 187 -238 4 0 16 10 27 21 20 22 20 22 1 50 -11 15
-20 31 -20 36 0 4 -9 19 -19 33 -17 22 -18 27 -5 51 8 17 20 26 31 24 10 -2
21 -4 25 -4 5 -1 16 -17 25 -36 10 -19 40 -79 68 -132 27 -54 48 -102 47 -106
-1 -4 5 -10 13 -13 8 -4 15 -12 15 -19 0 -23 51 -51 155 -85 64 -20 105 -40
115 -53 41 -58 58 -68 122 -71 36 -1 88 -37 88 -61 0 -23 57 -64 105 -76 28
-6 60 -18 73 -25 22 -15 31 -44 12 -44 -5 0 -10 -5 -10 -11 0 -6 -8 -23 -19
-37 -22 -32 -41 -115 -34 -151 3 -14 6 -35 8 -46 5 -27 13 -59 15 -62 2 -2 3
-7 4 -12 4 -28 124 -181 142 -181 3 0 25 -19 47 -43 40 -40 42 -46 40 -97 -1
-30 -2 -55 -3 -55 -1 0 -3 -27 -4 -60 -2 -33 -7 -98 -11 -145 -11 -120 -13
-135 -15 -135 -1 0 -3 -13 -5 -30 -1 -16 -3 -33 -4 -37 0 -3 -25 -10 -53 -14
-56 -8 -67 -10 -70 -14 -7 -5 -136 -13 -233 -13 -92 0 -240 8 -240 13 0 1 -12
4 -26 6 -15 2 -74 18 -130 35 -57 16 -110 31 -116 31 -7 1 -13 5 -13 10 0 4
-6 8 -14 8 -20 0 -214 99 -261 133 -16 12 -87 66 -124 95 -95 76 -291 304
-291 340 0 6 -4 12 -9 14 -27 10 -187 388 -164 388 3 0 0 6 -6 13 -6 8 -8 17
-5 20 3 3 2 12 -2 19 -5 7 -9 22 -11 33 -1 11 -5 43 -9 70 -4 28 -8 78 -8 112
-1 35 -3 63 -6 63 -9 0 5 217 17 255 3 11 7 31 8 45 3 33 30 137 45 175 6 17
11 31 11 32 -4 20 107 253 120 253 5 0 9 9 9 20 0 11 7 23 15 26 8 4 15 10 15
16 0 11 51 81 63 86 4 2 7 9 7 16 0 7 14 25 30 39 17 15 30 31 30 37 0 16 33
-2 65 -34z"/>
<path d="M5575 2663 c-27 -8 -58 -15 -67 -15 -10 1 -18 -2 -19 -6 0 -4 -2 -15
-4 -24 -3 -16 7 -18 108 -18 104 0 118 -2 200 -35 79 -30 115 -36 118 -16 0 3
2 14 4 23 4 20 -12 35 -45 42 -14 3 -62 19 -108 36 -92 33 -113 35 -187 13z"/>
</g>
</svg>
